<svg width="150" height="30" viewBox="0 0 150 30" fill="none" xmlns="http://www.w3.org/2000/svg">
<path d="M1.21729 23.8674V7.16797L13.3623 23.8674" stroke="#F4F3ED" stroke-width="1.5"/>
<path d="M1 1.96289L11.8964 16.9273M17.2656 24.301L11.8964 16.9273M11.8964 16.9273L22.2738 3.8454C22.2738 3.8454 22.2738 22.6646 22.2738 24.301" stroke="#F4F3ED" stroke-width="1.5"/>
<path d="M37.0011 1.5293V12.2511M37.0011 24.3012V12.2511M22.4705 12.2511H29.7358H37.0011" stroke="#F4F3ED" stroke-width="1.5"/>
<path d="M24.8547 15.1924H36.9997" stroke="#F4F3ED" stroke-width="1.5"/>
<path d="M61.4797 10.2867L55.1486 21.8244H54.3175L47.9375 10.4089V24H46.2753V6.88889H47.7175L54.7331 19.5511L61.6997 6.88889H63.1908L63.2153 24H61.5042L61.4797 10.2867ZM74.1182 24.1711C71.9997 24.1711 70.3456 23.5356 69.156 22.2644C67.9826 20.977 67.396 19.1193 67.396 16.6911V6.88889H69.1804V16.6178C69.1804 18.6059 69.6041 20.0889 70.4515 21.0667C71.2989 22.0444 72.5211 22.5333 74.1182 22.5333C75.7152 22.5333 76.9374 22.0444 77.7848 21.0667C78.6323 20.0889 79.056 18.6059 79.056 16.6178V6.88889H80.7915V16.6911C80.7915 19.1193 80.2048 20.977 79.0315 22.2644C77.8745 23.5356 76.2367 24.1711 74.1182 24.1711ZM89.5094 24.1711C88.3035 24.1711 87.1464 23.9674 86.0383 23.56C84.9464 23.1363 84.0827 22.5904 83.4472 21.9222L84.1316 20.5289C84.7346 21.1481 85.5168 21.6533 86.4783 22.0444C87.4561 22.4193 88.4664 22.6067 89.5094 22.6067C90.9435 22.6067 92.019 22.3296 92.7361 21.7756C93.4694 21.2052 93.8361 20.48 93.8361 19.6C93.8361 18.9156 93.6405 18.3696 93.2494 17.9622C92.8583 17.5385 92.3694 17.2207 91.7827 17.0089C91.1961 16.7807 90.3975 16.5363 89.3872 16.2756C88.1812 15.9496 87.2116 15.64 86.4783 15.3467C85.7612 15.037 85.142 14.5726 84.6205 13.9533C84.1153 13.3341 83.8627 12.4948 83.8627 11.4356C83.8627 10.5719 84.0827 9.78148 84.5227 9.06444C84.9627 8.34741 85.6227 7.77704 86.5027 7.35333C87.399 6.92963 88.5072 6.71778 89.8272 6.71778C90.7724 6.71778 91.6931 6.8563 92.5894 7.13333C93.4857 7.41037 94.2679 7.79333 94.9361 8.28222L94.3249 9.72444C93.6568 9.25185 92.9316 8.89333 92.1494 8.64889C91.3672 8.40444 90.6012 8.28222 89.8516 8.28222C88.4501 8.28222 87.3909 8.57556 86.6738 9.16222C85.9731 9.73259 85.6227 10.4659 85.6227 11.3622C85.6227 12.0467 85.8183 12.6007 86.2094 13.0244C86.6005 13.4481 87.0894 13.7741 87.6761 14.0022C88.279 14.2141 89.0857 14.4504 90.0961 14.7111C91.2857 15.0207 92.239 15.3304 92.9561 15.64C93.6894 15.9333 94.3087 16.3896 94.8138 17.0089C95.3353 17.6281 95.5961 18.4511 95.5961 19.4778C95.5961 20.3415 95.3679 21.1319 94.9116 21.8489C94.4716 22.5496 93.7953 23.1119 92.8827 23.5356C91.9701 23.9593 90.8457 24.1711 89.5094 24.1711ZM109.642 24H98.1283V6.88889H109.324V8.45333H99.8883V14.54H108.297V16.08H99.8883V22.4356H109.642V24ZM119.321 24.1711C117.203 24.1711 115.549 23.5356 114.359 22.2644C113.186 20.977 112.599 19.1193 112.599 16.6911V6.88889H114.384V16.6178C114.384 18.6059 114.807 20.0889 115.655 21.0667C116.502 22.0444 117.724 22.5333 119.321 22.5333C120.918 22.5333 122.141 22.0444 122.988 21.0667C123.835 20.0889 124.259 18.6059 124.259 16.6178V6.88889H125.995V16.6911C125.995 19.1193 125.408 20.977 124.235 22.2644C123.078 23.5356 121.44 24.1711 119.321 24.1711ZM145.419 10.2867L139.088 21.8244H138.257L131.877 10.4089V24H130.215V6.88889H131.657L138.673 19.5511L145.639 6.88889H147.13L147.155 24H145.444L145.419 10.2867Z" fill="#F4F3ED"/>
</svg>
