<svg width="110" height="30" viewBox="0 0 110 30" fill="none" xmlns="http://www.w3.org/2000/svg">
<path d="M1.15283 20.6951V8.96191L9.68604 20.6951" stroke="#F4F3ED" stroke-width="1.5"/>
<path d="M1 5.30469L8.65592 15.8188M12.4284 20.9997L8.65592 15.8188M8.65592 15.8188L15.9472 6.62736C15.9472 6.62736 15.9472 19.8499 15.9472 20.9997" stroke="#F4F3ED" stroke-width="1.5"/>
<path d="M26.2948 5V12.5332M26.2948 20.9998V12.5332M16.0854 12.5332H21.1901H26.2948" stroke="#F4F3ED" stroke-width="1.5"/>
<path d="M17.7607 14.6001H26.294" stroke="#F4F3ED" stroke-width="1.5"/>
<path d="M45.006 11.0267L40.4016 19.4178H39.7971L35.1571 11.1156V21H33.9483V8.55556H34.9971L40.0994 17.7644L45.166 8.55556H46.2505L46.2683 21H45.0238L45.006 11.0267ZM54.1976 21.1244C52.6569 21.1244 51.4539 20.6622 50.5887 19.7378C49.7354 18.8015 49.3087 17.4504 49.3087 15.6844V8.55556H50.6065V15.6311C50.6065 17.077 50.9147 18.1556 51.531 18.8667C52.1473 19.5778 53.0361 19.9333 54.1976 19.9333C55.3591 19.9333 56.248 19.5778 56.8643 18.8667C57.4806 18.1556 57.7887 17.077 57.7887 15.6311V8.55556H59.051V15.6844C59.051 17.4504 58.6243 18.8015 57.771 19.7378C56.9295 20.6622 55.7384 21.1244 54.1976 21.1244ZM65.3912 21.1244C64.5142 21.1244 63.6727 20.9763 62.8668 20.68C62.0727 20.3719 61.4446 19.9748 60.9824 19.4889L61.4801 18.4756C61.9186 18.9259 62.4875 19.2933 63.1868 19.5778C63.8979 19.8504 64.6327 19.9867 65.3912 19.9867C66.4342 19.9867 67.2164 19.7852 67.7379 19.3822C68.2712 18.9674 68.5379 18.44 68.5379 17.8C68.5379 17.3022 68.3957 16.9052 68.1112 16.6089C67.8268 16.3007 67.4712 16.0696 67.0446 15.9156C66.6179 15.7496 66.0372 15.5719 65.3024 15.3822C64.4253 15.1452 63.7201 14.92 63.1868 14.7067C62.6653 14.4815 62.2149 14.1437 61.8357 13.6933C61.4683 13.243 61.2846 12.6326 61.2846 11.8622C61.2846 11.2341 61.4446 10.6593 61.7646 10.1378C62.0846 9.6163 62.5646 9.20148 63.2046 8.89333C63.8564 8.58518 64.6624 8.43111 65.6224 8.43111C66.3098 8.43111 66.9794 8.53185 67.6312 8.73333C68.2831 8.93481 68.852 9.21333 69.3379 9.56889L68.8935 10.6178C68.4075 10.2741 67.8801 10.0133 67.3112 9.83556C66.7424 9.65778 66.1853 9.56889 65.6401 9.56889C64.6209 9.56889 63.8505 9.78222 63.329 10.2089C62.8194 10.6237 62.5646 11.157 62.5646 11.8089C62.5646 12.3067 62.7068 12.7096 62.9912 13.0178C63.2757 13.3259 63.6312 13.563 64.0579 13.7289C64.4964 13.883 65.0831 14.0548 65.8179 14.2444C66.6831 14.4696 67.3764 14.6948 67.8979 14.92C68.4312 15.1333 68.8816 15.4652 69.249 15.9156C69.6283 16.3659 69.8179 16.9644 69.8179 17.7111C69.8179 18.3393 69.652 18.9141 69.3201 19.4356C69.0001 19.9452 68.5083 20.3541 67.8446 20.6622C67.1809 20.9704 66.3631 21.1244 65.3912 21.1244ZM80.0328 21H71.6595V8.55556H79.8017V9.69333H72.9395V14.12H79.0551V15.24H72.9395V19.8622H80.0328V21ZM87.0726 21.1244C85.5319 21.1244 84.3289 20.6622 83.4637 19.7378C82.6104 18.8015 82.1837 17.4504 82.1837 15.6844V8.55556H83.4815V15.6311C83.4815 17.077 83.7897 18.1556 84.406 18.8667C85.0223 19.5778 85.9111 19.9333 87.0726 19.9333C88.2341 19.9333 89.123 19.5778 89.7393 18.8667C90.3556 18.1556 90.6637 17.077 90.6637 15.6311V8.55556H91.926V15.6844C91.926 17.4504 91.4993 18.8015 90.646 19.7378C89.8045 20.6622 88.6134 21.1244 87.0726 21.1244ZM106.053 11.0267L101.448 19.4178H100.844L96.204 11.1156V21H94.9951V8.55556H96.044L101.146 17.7644L106.213 8.55556H107.297L107.315 21H106.071L106.053 11.0267Z" fill="#F4F3ED"/>
</svg>
